# xmcd
#
# Track frame offsets: 
#        150
#        13716
#        24013
#        35498
#        46266
#        59034
#        69191
#        80619
#        96053
#        108009
#        117757
#        128427
#
# Disc length: 1844 seconds
#
# Revision: 4
# Processed by: cddbd v1.5.2PL0 Copyright (c) Steve Scherf et al.
# Submitted via: ExactAudioCopy v1.1
#
DISCID=8807320c
DTITLE=Arthur Conley - More Sweet Soul
DYEAR=1900
DGENRE=R&B
TTITLE0=Ob-La-Di, Ob-La-Da (stereo)
TTITLE1=Shing-A-Ling (stereo)
TTITLE2=One Night Is All I Need (stereo)
TTITLE3=I Got A Feeling (stereo)
TTITLE4=Aunt Dora's Love Soul Shack (stereo)
TTITLE5=Stuff You Gotta Watch (stereo)
TTITLE6=Something You Got (stereo)
TTITLE7=Is That You, Love? (stereo)
TTITLE8=Speak Her Name (stereo)
TTITLE9=Run On (stereo)
TTITLE10=That Can't Be My Baby (stereo)
TTITLE11=Take A Step (stereo)
EXTD=
EXTT0=
EXTT1=
EXTT2=
EXTT3=
EXTT4=
EXTT5=
EXTT6=
EXTT7=
EXTT8=
EXTT9=
EXTT10=
EXTT11=
PLAYORDER=
